<svg xmlns="http://www.w3.org/2000/svg" version="1.1" xmlns:xlink="http://www.w3.org/1999/xlink" xmlns:svgjs="http://svgjs.com/svgjs" width="512" height="512" x="0" y="0" viewBox="0 0 512 512" style="enable-background:new 0 0 512 512" xml:space="preserve" class=""><g><script></script><g xmlns="http://www.w3.org/2000/svg"><path d="m448.599 239.799c-8.699 60.3-45.3 111.301-96 140.402l-96.599 10.799-96.599-10.8c-50.7-29.101-87.301-80.101-96-140.402l192.599-29.699z" fill="#5b3d66" data-original="#5b3d66" style=""></path><path d="m352.599 380.2c50.7-29.101 87.301-80.101 96-140.402l-192.599-29.699v180.901z" fill="#45274d" data-original="#45274d" style=""></path><g><path d="m352.599 380.2c-28.498 16.5-61.5 25.8-96.599 25.8s-68.101-9.3-96.599-25.8c21.599-30 56.999-49.2 96.599-49.2 39.901 0 75 19.499 96.599 49.2z" fill="#ff6699" data-original="#ff6699" style=""></path><path d="m451 181v30c0 9.899-.601 19.499-2.401 28.799-62.1 20.402-127.5 30.3-192.599 30.3-65.4 0-130.499-9.899-192.599-30.3-1.8-9.3-2.401-18.9-2.401-28.799v-30c0-4.801 2.401-9.3 6.301-12.301 3.9-2.699 8.699-3.6 13.499-1.8 113.101 37.5 237.301 37.5 350.402 0 4.499-1.8 9.598-.899 13.499 1.8 3.898 3.001 6.299 7.5 6.299 12.301z" fill="#e7f4fd" data-original="#e7f4fd" style=""></path></g><g id="Smile_2_"><g><path d="m15 181c-8.291 0-15-6.709-15-15 0-33.091 26.924-60 60-60 8.291 0 15 6.709 15 15s-6.709 15-15 15c-16.553 0-30 13.462-30 30 0 8.291-6.709 15-15 15z" fill="#feede6" data-original="#feede6" style=""></path></g><g><path d="m497 196c-8.291 0-15-6.709-15-15 0-24.814-20.186-45-45-45-8.291 0-15-6.709-15-15s6.709-15 15-15c41.367 0 75 33.647 75 75 0 8.291-6.709 15-15 15z" fill="#fce0d3" data-original="#fce0d3" style=""></path></g></g><path d="m448.599 239.799c1.8-9.3 2.401-18.9 2.401-28.799v-30c0-4.801-2.401-9.3-6.301-12.301-3.9-2.699-9-3.6-13.499-1.8-56.55 18.75-115.876 28.125-175.201 28.125v75.075c65.1 0 130.5-9.899 192.6-30.3z" fill="#d0e9fb" data-original="#d0e9fb" style=""></path><path d="m352.599 380.2c-21.599-29.701-56.698-49.2-96.599-49.2v75c35.099 0 68.101-9.3 96.599-25.8z" fill="#ff3377" data-original="#ff3377" style=""></path></g></g></svg>